<svg width="1600" height="900" viewBox="0 0 1600 900" fill="none" xmlns="http://www.w3.org/2000/svg" role="img" aria-labelledby="title desc">
  <title id="title">Portfolio workspace illustration</title>
  <desc id="desc">A stylized desktop with overlapping web project screens, charts, and code panels.</desc>
  <rect width="1600" height="900" fill="#13211F"/>
  <rect x="0" y="0" width="1600" height="900" fill="#F5F2EA" opacity="0.05"/>
  <path d="M0 654C200 612 369 625 540 670C742 723 906 719 1100 661C1282 607 1436 610 1600 640V900H0V654Z" fill="#E8C547" opacity="0.13"/>
  <path d="M0 133C189 88 360 95 533 134C764 186 925 168 1110 112C1277 62 1448 70 1600 96V0H0V133Z" fill="#1DA1A8" opacity="0.24"/>
  <rect x="232" y="155" width="730" height="430" rx="18" fill="#0E1514" stroke="#D9E7E5" stroke-opacity="0.2" stroke-width="2"/>
  <rect x="260" y="193" width="674" height="344" rx="8" fill="#F7F3E7"/>
  <rect x="292" y="225" width="190" height="248" rx="8" fill="#13211F"/>
  <rect x="317" y="254" width="91" height="12" rx="6" fill="#E85D4F"/>
  <rect x="317" y="292" width="132" height="10" rx="5" fill="#F7F3E7" opacity="0.75"/>
  <rect x="317" y="319" width="104" height="10" rx="5" fill="#F7F3E7" opacity="0.45"/>
  <rect x="317" y="370" width="74" height="74" rx="8" fill="#1DA1A8"/>
  <rect x="408" y="370" width="32" height="74" rx="8" fill="#E8C547"/>
  <rect x="514" y="225" width="370" height="112" rx="8" fill="#FFFFFF"/>
  <path d="M543 299L598 271L667 293L727 252L788 278L855 242" stroke="#1DA1A8" stroke-width="10" stroke-linecap="round" stroke-linejoin="round"/>
  <rect x="514" y="365" width="166" height="108" rx="8" fill="#FFFFFF"/>
  <rect x="707" y="365" width="177" height="108" rx="8" fill="#FFFFFF"/>
  <circle cx="574" cy="419" r="34" fill="#E85D4F"/>
  <circle cx="574" cy="419" r="21" fill="#F7F3E7"/>
  <rect x="739" y="398" width="106" height="12" rx="6" fill="#13211F"/>
  <rect x="739" y="427" width="75" height="12" rx="6" fill="#1DA1A8"/>
  <rect x="845" y="622" width="402" height="230" rx="18" fill="#101816" stroke="#D9E7E5" stroke-opacity="0.2" stroke-width="2"/>
  <rect x="879" y="660" width="334" height="34" rx="8" fill="#22322F"/>
  <rect x="879" y="721" width="138" height="12" rx="6" fill="#E8C547"/>
  <rect x="879" y="754" width="240" height="12" rx="6" fill="#D9E7E5" opacity="0.55"/>
  <rect x="879" y="787" width="194" height="12" rx="6" fill="#D9E7E5" opacity="0.35"/>
  <rect x="1067" y="720" width="146" height="90" rx="8" fill="#F7F3E7"/>
  <path d="M1089 783L1112 755L1134 771L1158 740L1190 790" stroke="#E85D4F" stroke-width="8" stroke-linecap="round" stroke-linejoin="round"/>
  <rect x="1036" y="104" width="344" height="300" rx="18" fill="#F7F3E7" stroke="#13211F" stroke-opacity="0.25" stroke-width="2"/>
  <rect x="1074" y="144" width="101" height="12" rx="6" fill="#13211F"/>
  <rect x="1074" y="180" width="222" height="12" rx="6" fill="#1DA1A8"/>
  <rect x="1074" y="230" width="80" height="112" rx="8" fill="#E85D4F"/>
  <rect x="1180" y="203" width="80" height="139" rx="8" fill="#E8C547"/>
  <rect x="1286" y="257" width="56" height="85" rx="8" fill="#13211F"/>
  <circle cx="317" cy="689" r="46" fill="#1DA1A8" opacity="0.9"/>
  <circle cx="399" cy="723" r="19" fill="#E85D4F"/>
  <rect x="195" y="724" width="426" height="24" rx="12" fill="#0E1514" opacity="0.7"/>
</svg>
