<svg width="920" height="620" viewBox="0 0 920 620" fill="none" xmlns="http://www.w3.org/2000/svg" role="img" aria-labelledby="title desc">
  <title id="title">Quiz game preview</title>
  <desc id="desc">A quiz game screen with a question panel, answer choices, and a progress indicator.</desc>
  <rect width="920" height="620" rx="18" fill="#13211F"/>
  <circle cx="748" cy="122" r="74" fill="#E8C547"/>
  <circle cx="185" cy="515" r="86" fill="#1DA1A8"/>
  <rect x="124" y="94" width="672" height="432" rx="16" fill="#F7F3E7"/>
  <rect x="170" y="144" width="168" height="16" rx="8" fill="#E85D4F"/>
  <rect x="170" y="205" width="470" height="20" rx="10" fill="#13211F"/>
  <rect x="170" y="244" width="380" height="14" rx="7" fill="#13211F" opacity="0.48"/>
  <rect x="170" y="306" width="246" height="58" rx="10" fill="#FFFFFF" stroke="#13211F" stroke-opacity="0.2" stroke-width="3"/>
  <rect x="448" y="306" width="246" height="58" rx="10" fill="#FFFFFF" stroke="#13211F" stroke-opacity="0.2" stroke-width="3"/>
  <rect x="170" y="392" width="246" height="58" rx="10" fill="#1DA1A8"/>
  <rect x="448" y="392" width="246" height="58" rx="10" fill="#FFFFFF" stroke="#13211F" stroke-opacity="0.2" stroke-width="3"/>
  <rect x="202" y="329" width="128" height="10" rx="5" fill="#13211F" opacity="0.45"/>
  <rect x="480" y="329" width="116" height="10" rx="5" fill="#13211F" opacity="0.45"/>
  <rect x="202" y="416" width="118" height="10" rx="5" fill="#F7F3E7"/>
  <rect x="480" y="416" width="138" height="10" rx="5" fill="#13211F" opacity="0.45"/>
  <rect x="170" y="486" width="524" height="8" rx="4" fill="#13211F" opacity="0.15"/>
  <rect x="170" y="486" width="268" height="8" rx="4" fill="#E85D4F"/>
</svg>
